<svg width="364" height="197" viewBox="0 0 364 197" fill="none" xmlns="http://www.w3.org/2000/svg">
<rect x="43.5" y="11.5" width="320" height="166" stroke="#4F4F4F"/>
<path d="M43 66H364" stroke="#4F4F4F"/>
<path d="M43 39H364" stroke="#4F4F4F"/>
<path d="M43 93H364" stroke="#4F4F4F"/>
<path d="M43 120H364" stroke="#4F4F4F"/>
<path d="M43 147H364" stroke="#4F4F4F"/>
<path d="M97 11L97 178" stroke="#4F4F4F"/>
<path d="M150 11L150 178" stroke="#4F4F4F"/>
<path d="M203 11L203 178" stroke="#4F4F4F"/>
<path d="M256 11L256 178" stroke="#4F4F4F"/>
<path d="M309 11L309 178" stroke="#4F4F4F"/>
<path d="M12.1626 173.168V174.105H8.34446V173.168H12.1626ZM16.8129 178.119C16.4549 178.114 16.0969 178.045 15.739 177.915C15.381 177.784 15.0543 177.564 14.7589 177.254C14.4634 176.942 14.2262 176.52 14.0472 175.989C13.8683 175.455 13.7788 174.784 13.7788 173.977C13.7788 173.205 13.8512 172.52 13.9961 171.923C14.141 171.324 14.3512 170.82 14.6268 170.411C14.9023 169.999 15.2347 169.686 15.6239 169.473C16.016 169.26 16.4577 169.153 16.9492 169.153C17.4379 169.153 17.8725 169.251 18.2532 169.447C18.6367 169.641 18.9492 169.911 19.1907 170.257C19.4322 170.604 19.5884 171.003 19.6594 171.455H18.6197C18.5231 171.062 18.3356 170.737 18.0572 170.479C17.7788 170.22 17.4094 170.091 16.9492 170.091C16.2731 170.091 15.7404 170.385 15.3512 170.973C14.9648 171.561 14.7702 172.386 14.7674 173.449H14.8356C14.9947 173.207 15.1836 173.001 15.4023 172.831C15.6239 172.658 15.8683 172.524 16.1353 172.43C16.4023 172.337 16.685 172.29 16.9833 172.29C17.4833 172.29 17.9407 172.415 18.3555 172.665C18.7702 172.912 19.1026 173.254 19.3526 173.692C19.6026 174.126 19.7276 174.625 19.7276 175.188C19.7276 175.727 19.6069 176.222 19.3654 176.67C19.1239 177.116 18.7844 177.472 18.3469 177.736C17.9123 177.997 17.4009 178.125 16.8129 178.119ZM16.8129 177.182C17.1708 177.182 17.4918 177.092 17.7759 176.913C18.0629 176.734 18.2887 176.494 18.4535 176.193C18.6211 175.892 18.7049 175.557 18.7049 175.188C18.7049 174.827 18.6239 174.499 18.462 174.203C18.3029 173.905 18.0827 173.668 17.8015 173.491C17.5231 173.315 17.2049 173.227 16.8469 173.227C16.5771 173.227 16.3256 173.281 16.0927 173.389C15.8597 173.494 15.6552 173.639 15.479 173.824C15.3058 174.009 15.1694 174.22 15.07 174.459C14.9705 174.695 14.9208 174.943 14.9208 175.205C14.9208 175.551 15.0018 175.875 15.1637 176.176C15.3285 176.477 15.5529 176.72 15.837 176.905C16.1239 177.089 16.4492 177.182 16.8129 177.182ZM24.25 178.119C23.608 178.119 23.0611 177.945 22.6094 177.595C22.1577 177.243 21.8125 176.733 21.5739 176.065C21.3352 175.395 21.2159 174.585 21.2159 173.636C21.2159 172.693 21.3352 171.888 21.5739 171.22C21.8153 170.55 22.1619 170.038 22.6136 169.686C23.0682 169.331 23.6136 169.153 24.25 169.153C24.8864 169.153 25.4304 169.331 25.8821 169.686C26.3366 170.038 26.6832 170.55 26.9219 171.22C27.1634 171.888 27.2841 172.693 27.2841 173.636C27.2841 174.585 27.1648 175.395 26.9261 176.065C26.6875 176.733 26.3423 177.243 25.8906 177.595C25.4389 177.945 24.892 178.119 24.25 178.119ZM24.25 177.182C24.8864 177.182 25.3807 176.875 25.733 176.261C26.0852 175.648 26.2614 174.773 26.2614 173.636C26.2614 172.881 26.1804 172.237 26.0185 171.706C25.8594 171.175 25.6293 170.77 25.3281 170.491C25.0298 170.213 24.6705 170.074 24.25 170.074C23.6193 170.074 23.1264 170.385 22.7713 171.007C22.4162 171.626 22.2386 172.503 22.2386 173.636C22.2386 174.392 22.3182 175.034 22.4773 175.562C22.6364 176.091 22.8651 176.493 23.1634 176.768C23.4645 177.044 23.8267 177.182 24.25 177.182Z" fill="white"/>
<path d="M11.9517 142.168V143.105H8.13352V142.168H11.9517ZM13.4996 145.21V144.341L17.3349 138.273H17.9656V139.619H17.5394L14.6417 144.205V144.273H19.8065V145.21H13.4996ZM17.6076 147V144.946V144.541V138.273H18.6133V147H17.6076ZM24.25 147.119C23.608 147.119 23.0611 146.945 22.6094 146.595C22.1577 146.243 21.8125 145.733 21.5739 145.065C21.3352 144.395 21.2159 143.585 21.2159 142.636C21.2159 141.693 21.3352 140.888 21.5739 140.22C21.8153 139.55 22.1619 139.038 22.6136 138.686C23.0682 138.331 23.6136 138.153 24.25 138.153C24.8864 138.153 25.4304 138.331 25.8821 138.686C26.3366 139.038 26.6832 139.55 26.9219 140.22C27.1634 140.888 27.2841 141.693 27.2841 142.636C27.2841 143.585 27.1648 144.395 26.9261 145.065C26.6875 145.733 26.3423 146.243 25.8906 146.595C25.4389 146.945 24.892 147.119 24.25 147.119ZM24.25 146.182C24.8864 146.182 25.3807 145.875 25.733 145.261C26.0852 144.648 26.2614 143.773 26.2614 142.636C26.2614 141.881 26.1804 141.237 26.0185 140.706C25.8594 140.175 25.6293 139.77 25.3281 139.491C25.0298 139.213 24.6705 139.074 24.25 139.074C23.6193 139.074 23.1264 139.385 22.7713 140.007C22.4162 140.626 22.2386 141.503 22.2386 142.636C22.2386 143.392 22.3182 144.034 22.4773 144.562C22.6364 145.091 22.8651 145.493 23.1634 145.768C23.4645 146.044 23.8267 146.182 24.25 146.182Z" fill="white"/>
<path d="M12.7955 115.168V116.105H8.97727V115.168H12.7955ZM14.1378 120V119.233L17.0185 116.08C17.3565 115.71 17.6349 115.389 17.8537 115.116C18.0724 114.841 18.2344 114.582 18.3395 114.341C18.4474 114.097 18.5014 113.841 18.5014 113.574C18.5014 113.267 18.4276 113.001 18.2798 112.777C18.1349 112.553 17.9361 112.379 17.6832 112.257C17.4304 112.135 17.1463 112.074 16.831 112.074C16.4957 112.074 16.2031 112.143 15.9531 112.283C15.706 112.419 15.5142 112.611 15.3778 112.858C15.2443 113.105 15.1776 113.395 15.1776 113.727H14.1719C14.1719 113.216 14.2898 112.767 14.5256 112.381C14.7614 111.994 15.0824 111.693 15.4886 111.477C15.8977 111.261 16.3565 111.153 16.8651 111.153C17.3764 111.153 17.8295 111.261 18.2244 111.477C18.6193 111.693 18.929 111.984 19.1534 112.351C19.3778 112.717 19.4901 113.125 19.4901 113.574C19.4901 113.895 19.4318 114.209 19.3153 114.516C19.2017 114.82 19.0028 115.159 18.7188 115.534C18.4375 115.906 18.0469 116.361 17.5469 116.898L15.5866 118.994V119.062H19.6435V120H14.1378ZM24.25 120.119C23.608 120.119 23.0611 119.945 22.6094 119.595C22.1577 119.243 21.8125 118.733 21.5739 118.065C21.3352 117.395 21.2159 116.585 21.2159 115.636C21.2159 114.693 21.3352 113.888 21.5739 113.22C21.8153 112.55 22.1619 112.038 22.6136 111.686C23.0682 111.331 23.6136 111.153 24.25 111.153C24.8864 111.153 25.4304 111.331 25.8821 111.686C26.3366 112.038 26.6832 112.55 26.9219 113.22C27.1634 113.888 27.2841 114.693 27.2841 115.636C27.2841 116.585 27.1648 117.395 26.9261 118.065C26.6875 118.733 26.3423 119.243 25.8906 119.595C25.4389 119.945 24.892 120.119 24.25 120.119ZM24.25 119.182C24.8864 119.182 25.3807 118.875 25.733 118.261C26.0852 117.648 26.2614 116.773 26.2614 115.636C26.2614 114.881 26.1804 114.237 26.0185 113.706C25.8594 113.175 25.6293 112.77 25.3281 112.491C25.0298 112.213 24.6705 112.074 24.25 112.074C23.6193 112.074 23.1264 112.385 22.7713 113.007C22.4162 113.626 22.2386 114.503 22.2386 115.636C22.2386 116.392 22.3182 117.034 22.4773 117.562C22.6364 118.091 22.8651 118.493 23.1634 118.768C23.4645 119.044 23.8267 119.182 24.25 119.182Z" fill="white"/>
<path d="M24.25 94.1193C23.608 94.1193 23.0611 93.9446 22.6094 93.5952C22.1577 93.2429 21.8125 92.733 21.5739 92.0653C21.3352 91.3949 21.2159 90.5852 21.2159 89.6364C21.2159 88.6932 21.3352 87.8878 21.5739 87.2202C21.8153 86.5497 22.1619 86.0384 22.6136 85.6861C23.0682 85.331 23.6136 85.1534 24.25 85.1534C24.8864 85.1534 25.4304 85.331 25.8821 85.6861C26.3366 86.0384 26.6832 86.5497 26.9219 87.2202C27.1634 87.8878 27.2841 88.6932 27.2841 89.6364C27.2841 90.5852 27.1648 91.3949 26.9261 92.0653C26.6875 92.733 26.3423 93.2429 25.8906 93.5952C25.4389 93.9446 24.892 94.1193 24.25 94.1193ZM24.25 93.1818C24.8864 93.1818 25.3807 92.875 25.733 92.2614C26.0852 91.6477 26.2614 90.7727 26.2614 89.6364C26.2614 88.8807 26.1804 88.2372 26.0185 87.706C25.8594 87.1747 25.6293 86.7699 25.3281 86.4915C25.0298 86.2131 24.6705 86.0739 24.25 86.0739C23.6193 86.0739 23.1264 86.3849 22.7713 87.0071C22.4162 87.6264 22.2386 88.5028 22.2386 89.6364C22.2386 90.392 22.3182 91.0341 22.4773 91.5625C22.6364 92.0909 22.8651 92.4929 23.1634 92.7685C23.4645 93.044 23.8267 93.1818 24.25 93.1818Z" fill="white"/>
<path d="M14.1378 66V65.233L17.0185 62.0795C17.3565 61.7102 17.6349 61.3892 17.8537 61.1165C18.0724 60.8409 18.2344 60.5824 18.3395 60.3409C18.4474 60.0966 18.5014 59.8409 18.5014 59.5739C18.5014 59.267 18.4276 59.0014 18.2798 58.777C18.1349 58.5526 17.9361 58.3793 17.6832 58.2571C17.4304 58.1349 17.1463 58.0739 16.831 58.0739C16.4957 58.0739 16.2031 58.1435 15.9531 58.2827C15.706 58.419 15.5142 58.6108 15.3778 58.858C15.2443 59.1051 15.1776 59.3949 15.1776 59.7273H14.1719C14.1719 59.2159 14.2898 58.767 14.5256 58.3807C14.7614 57.9943 15.0824 57.6932 15.4886 57.4773C15.8977 57.2614 16.3565 57.1534 16.8651 57.1534C17.3764 57.1534 17.8295 57.2614 18.2244 57.4773C18.6193 57.6932 18.929 57.9844 19.1534 58.3509C19.3778 58.7173 19.4901 59.125 19.4901 59.5739C19.4901 59.8949 19.4318 60.2088 19.3153 60.5156C19.2017 60.8196 19.0028 61.1591 18.7188 61.5341C18.4375 61.9062 18.0469 62.3608 17.5469 62.8977L15.5866 64.9943V65.0625H19.6435V66H14.1378ZM24.25 66.1193C23.608 66.1193 23.0611 65.9446 22.6094 65.5952C22.1577 65.2429 21.8125 64.733 21.5739 64.0653C21.3352 63.3949 21.2159 62.5852 21.2159 61.6364C21.2159 60.6932 21.3352 59.8878 21.5739 59.2202C21.8153 58.5497 22.1619 58.0384 22.6136 57.6861C23.0682 57.331 23.6136 57.1534 24.25 57.1534C24.8864 57.1534 25.4304 57.331 25.8821 57.6861C26.3366 58.0384 26.6832 58.5497 26.9219 59.2202C27.1634 59.8878 27.2841 60.6932 27.2841 61.6364C27.2841 62.5852 27.1648 63.3949 26.9261 64.0653C26.6875 64.733 26.3423 65.2429 25.8906 65.5952C25.4389 65.9446 24.892 66.1193 24.25 66.1193ZM24.25 65.1818C24.8864 65.1818 25.3807 64.875 25.733 64.2614C26.0852 63.6477 26.2614 62.7727 26.2614 61.6364C26.2614 60.8807 26.1804 60.2372 26.0185 59.706C25.8594 59.1747 25.6293 58.7699 25.3281 58.4915C25.0298 58.2131 24.6705 58.0739 24.25 58.0739C23.6193 58.0739 23.1264 58.3849 22.7713 59.0071C22.4162 59.6264 22.2386 60.5028 22.2386 61.6364C22.2386 62.392 22.3182 63.0341 22.4773 63.5625C22.6364 64.0909 22.8651 64.4929 23.1634 64.7685C23.4645 65.044 23.8267 65.1818 24.25 65.1818Z" fill="white"/>
<path d="M13.4996 37.2102V36.3409L17.3349 30.2727H17.9656V31.6193H17.5394L14.6417 36.2045V36.2727H19.8065V37.2102H13.4996ZM17.6076 39V36.946V36.5412V30.2727H18.6133V39H17.6076ZM24.25 39.1193C23.608 39.1193 23.0611 38.9446 22.6094 38.5952C22.1577 38.2429 21.8125 37.733 21.5739 37.0653C21.3352 36.3949 21.2159 35.5852 21.2159 34.6364C21.2159 33.6932 21.3352 32.8878 21.5739 32.2202C21.8153 31.5497 22.1619 31.0384 22.6136 30.6861C23.0682 30.331 23.6136 30.1534 24.25 30.1534C24.8864 30.1534 25.4304 30.331 25.8821 30.6861C26.3366 31.0384 26.6832 31.5497 26.9219 32.2202C27.1634 32.8878 27.2841 33.6932 27.2841 34.6364C27.2841 35.5852 27.1648 36.3949 26.9261 37.0653C26.6875 37.733 26.3423 38.2429 25.8906 38.5952C25.4389 38.9446 24.892 39.1193 24.25 39.1193ZM24.25 38.1818C24.8864 38.1818 25.3807 37.875 25.733 37.2614C26.0852 36.6477 26.2614 35.7727 26.2614 34.6364C26.2614 33.8807 26.1804 33.2372 26.0185 32.706C25.8594 32.1747 25.6293 31.7699 25.3281 31.4915C25.0298 31.2131 24.6705 31.0739 24.25 31.0739C23.6193 31.0739 23.1264 31.3849 22.7713 32.0071C22.4162 32.6264 22.2386 33.5028 22.2386 34.6364C22.2386 35.392 22.3182 36.0341 22.4773 36.5625C22.6364 37.0909 22.8651 37.4929 23.1634 37.7685C23.4645 38.044 23.8267 38.1818 24.25 38.1818Z" fill="white"/>
<path d="M16.8129 12.1193C16.4549 12.1136 16.0969 12.0455 15.739 11.9148C15.381 11.7841 15.0543 11.5639 14.7589 11.2543C14.4634 10.9418 14.2262 10.5199 14.0472 9.98864C13.8683 9.45455 13.7788 8.78409 13.7788 7.97727C13.7788 7.20455 13.8512 6.51989 13.9961 5.9233C14.141 5.32386 14.3512 4.8196 14.6268 4.41051C14.9023 3.99858 15.2347 3.68608 15.6239 3.47301C16.016 3.25994 16.4577 3.15341 16.9492 3.15341C17.4379 3.15341 17.8725 3.25142 18.2532 3.44744C18.6367 3.64062 18.9492 3.91051 19.1907 4.2571C19.4322 4.60369 19.5884 5.00284 19.6594 5.45455H18.6197C18.5231 5.0625 18.3356 4.73722 18.0572 4.47869C17.7788 4.22017 17.4094 4.09091 16.9492 4.09091C16.2731 4.09091 15.7404 4.38494 15.3512 4.97301C14.9648 5.56108 14.7702 6.38636 14.7674 7.44886H14.8356C14.9947 7.20739 15.1836 7.00142 15.4023 6.83097C15.6239 6.65767 15.8683 6.52415 16.1353 6.4304C16.4023 6.33665 16.685 6.28977 16.9833 6.28977C17.4833 6.28977 17.9407 6.41477 18.3555 6.66477C18.7702 6.91193 19.1026 7.25426 19.3526 7.69176C19.6026 8.12642 19.7276 8.625 19.7276 9.1875C19.7276 9.72727 19.6069 10.2216 19.3654 10.6705C19.1239 11.1165 18.7844 11.4716 18.3469 11.7358C17.9123 11.9972 17.4009 12.125 16.8129 12.1193ZM16.8129 11.1818C17.1708 11.1818 17.4918 11.0923 17.7759 10.9134C18.0629 10.7344 18.2887 10.4943 18.4535 10.1932C18.6211 9.89205 18.7049 9.55682 18.7049 9.1875C18.7049 8.8267 18.6239 8.49858 18.462 8.20312C18.3029 7.90483 18.0827 7.66761 17.8015 7.49148C17.5231 7.31534 17.2049 7.22727 16.8469 7.22727C16.5771 7.22727 16.3256 7.28125 16.0927 7.3892C15.8597 7.49432 15.6552 7.6392 15.479 7.82386C15.3058 8.00852 15.1694 8.22017 15.07 8.45881C14.9705 8.6946 14.9208 8.94318 14.9208 9.20455C14.9208 9.55114 15.0018 9.875 15.1637 10.1761C15.3285 10.4773 15.5529 10.7202 15.837 10.9048C16.1239 11.0895 16.4492 11.1818 16.8129 11.1818ZM24.25 12.1193C23.608 12.1193 23.0611 11.9446 22.6094 11.5952C22.1577 11.2429 21.8125 10.733 21.5739 10.0653C21.3352 9.39489 21.2159 8.58523 21.2159 7.63636C21.2159 6.69318 21.3352 5.88778 21.5739 5.22017C21.8153 4.54972 22.1619 4.03835 22.6136 3.68608C23.0682 3.33097 23.6136 3.15341 24.25 3.15341C24.8864 3.15341 25.4304 3.33097 25.8821 3.68608C26.3366 4.03835 26.6832 4.54972 26.9219 5.22017C27.1634 5.88778 27.2841 6.69318 27.2841 7.63636C27.2841 8.58523 27.1648 9.39489 26.9261 10.0653C26.6875 10.733 26.3423 11.2429 25.8906 11.5952C25.4389 11.9446 24.892 12.1193 24.25 12.1193ZM24.25 11.1818C24.8864 11.1818 25.3807 10.875 25.733 10.2614C26.0852 9.64773 26.2614 8.77273 26.2614 7.63636C26.2614 6.88068 26.1804 6.23722 26.0185 5.70597C25.8594 5.17472 25.6293 4.76989 25.3281 4.49148C25.0298 4.21307 24.6705 4.07386 24.25 4.07386C23.6193 4.07386 23.1264 4.38494 22.7713 5.0071C22.4162 5.62642 22.2386 6.50284 22.2386 7.63636C22.2386 8.39205 22.3182 9.03409 22.4773 9.5625C22.6364 10.0909 22.8651 10.4929 23.1634 10.7685C23.4645 11.044 23.8267 11.1818 24.25 11.1818Z" fill="white"/>
<path d="M59.2077 184.727H60.0884V189.926C60.0884 190.39 60.0032 190.784 59.8327 191.109C59.6623 191.433 59.422 191.679 59.1119 191.847C58.8017 192.015 58.436 192.099 58.0146 192.099C57.6168 192.099 57.2629 192.027 56.9528 191.883C56.6426 191.736 56.3988 191.528 56.2212 191.258C56.0437 190.988 55.9549 190.667 55.9549 190.295H56.8214C56.8214 190.501 56.8723 190.681 56.9741 190.835C57.0782 190.987 57.2203 191.105 57.4002 191.19C57.5801 191.276 57.7849 191.318 58.0146 191.318C58.2679 191.318 58.4833 191.265 58.6609 191.158C58.8384 191.052 58.9734 190.896 59.0657 190.69C59.1604 190.481 59.2077 190.227 59.2077 189.926V184.727ZM63.3448 192.128C62.9992 192.128 62.6855 192.063 62.4038 191.933C62.122 191.8 61.8983 191.609 61.7326 191.361C61.5669 191.11 61.484 190.807 61.484 190.452C61.484 190.139 61.5456 189.886 61.6687 189.692C61.7918 189.495 61.9563 189.341 62.1623 189.23C62.3683 189.119 62.5955 189.036 62.8441 188.982C63.0951 188.925 63.3472 188.88 63.6005 188.847C63.9319 188.804 64.2006 188.772 64.4066 188.751C64.6149 188.727 64.7665 188.688 64.8612 188.634C64.9582 188.579 65.0067 188.484 65.0067 188.349V188.321C65.0067 187.971 64.9109 187.698 64.7191 187.504C64.5297 187.31 64.2421 187.213 63.8562 187.213C63.4561 187.213 63.1424 187.301 62.9151 187.476C62.6879 187.651 62.5281 187.838 62.4357 188.037L61.6403 187.753C61.7823 187.421 61.9717 187.163 62.2085 186.979C62.4476 186.792 62.708 186.661 62.9897 186.588C63.2738 186.512 63.5531 186.474 63.8278 186.474C64.003 186.474 64.2042 186.496 64.4315 186.538C64.6611 186.579 64.8825 186.663 65.0955 186.79C65.311 186.918 65.4897 187.111 65.6317 187.369C65.7738 187.627 65.8448 187.973 65.8448 188.406V192H65.0067V191.261H64.9641C64.9073 191.38 64.8126 191.506 64.68 191.641C64.5475 191.776 64.3711 191.891 64.1509 191.986C63.9308 192.08 63.6621 192.128 63.3448 192.128ZM63.4727 191.375C63.8041 191.375 64.0835 191.31 64.3107 191.18C64.5404 191.049 64.7132 190.881 64.8292 190.675C64.9476 190.469 65.0067 190.253 65.0067 190.026V189.259C64.9712 189.301 64.8931 189.34 64.7724 189.376C64.654 189.409 64.5167 189.438 64.3604 189.464C64.2066 189.488 64.0562 189.509 63.9094 189.528C63.765 189.545 63.6478 189.559 63.5579 189.571C63.3401 189.599 63.1365 189.646 62.9471 189.71C62.7601 189.771 62.6085 189.865 62.4925 189.99C62.3789 190.113 62.3221 190.281 62.3221 190.494C62.3221 190.786 62.4298 191.006 62.6452 191.155C62.863 191.302 63.1388 191.375 63.4727 191.375ZM68.2125 188.719V192H67.3745V186.545H68.1841V187.398H68.2551C68.383 187.121 68.5771 186.898 68.8375 186.73C69.098 186.56 69.4341 186.474 69.8461 186.474C70.2154 186.474 70.5385 186.55 70.8155 186.702C71.0925 186.851 71.3079 187.078 71.4618 187.384C71.6157 187.687 71.6926 188.07 71.6926 188.534V192H70.8546V188.591C70.8546 188.162 70.7433 187.829 70.5208 187.589C70.2982 187.348 69.9928 187.227 69.6046 187.227C69.3371 187.227 69.098 187.285 68.8873 187.401C68.6789 187.517 68.5144 187.687 68.3936 187.909C68.2729 188.132 68.2125 188.402 68.2125 188.719Z" fill="white"/>
<path d="M118.131 192V184.727H122.491V185.509H119.011V187.966H122.165V188.747H119.011V192H118.131ZM125.773 192.114C125.247 192.114 124.794 191.998 124.413 191.766C124.034 191.531 123.741 191.205 123.536 190.786C123.332 190.364 123.23 189.874 123.23 189.315C123.23 188.757 123.332 188.264 123.536 187.838C123.741 187.41 124.028 187.076 124.395 186.837C124.764 186.595 125.195 186.474 125.688 186.474C125.972 186.474 126.252 186.522 126.529 186.616C126.806 186.711 127.058 186.865 127.286 187.078C127.513 187.289 127.694 187.568 127.829 187.916C127.964 188.264 128.031 188.693 128.031 189.202V189.557H123.827V188.832H127.179C127.179 188.525 127.117 188.25 126.994 188.009C126.874 187.767 126.701 187.576 126.476 187.437C126.253 187.297 125.991 187.227 125.688 187.227C125.354 187.227 125.065 187.31 124.821 187.476C124.58 187.639 124.394 187.852 124.263 188.115C124.133 188.378 124.068 188.66 124.068 188.96V189.443C124.068 189.855 124.139 190.204 124.281 190.491C124.426 190.775 124.626 190.991 124.881 191.141C125.137 191.287 125.434 191.361 125.773 191.361C125.993 191.361 126.192 191.33 126.369 191.268C126.549 191.205 126.704 191.11 126.835 190.984C126.965 190.857 127.065 190.698 127.136 190.509L127.946 190.736C127.861 191.01 127.718 191.252 127.516 191.46C127.315 191.666 127.067 191.827 126.771 191.943C126.475 192.057 126.142 192.114 125.773 192.114ZM129.42 192V184.727H130.258V187.412H130.329C130.39 187.317 130.476 187.196 130.585 187.05C130.696 186.901 130.854 186.768 131.06 186.652C131.269 186.534 131.55 186.474 131.906 186.474C132.365 186.474 132.77 186.589 133.12 186.819C133.47 187.049 133.744 187.374 133.94 187.795C134.137 188.217 134.235 188.714 134.235 189.287C134.235 189.865 134.137 190.365 133.94 190.789C133.744 191.21 133.472 191.537 133.124 191.769C132.776 191.999 132.374 192.114 131.92 192.114C131.569 192.114 131.289 192.056 131.078 191.94C130.867 191.821 130.705 191.687 130.592 191.538C130.478 191.387 130.39 191.261 130.329 191.162H130.229V192H129.42ZM130.244 189.273C130.244 189.685 130.304 190.048 130.425 190.363C130.545 190.675 130.722 190.92 130.954 191.098C131.186 191.273 131.47 191.361 131.806 191.361C132.156 191.361 132.449 191.268 132.683 191.084C132.92 190.897 133.098 190.646 133.216 190.331C133.337 190.014 133.397 189.661 133.397 189.273C133.397 188.889 133.338 188.544 133.219 188.236C133.103 187.926 132.927 187.681 132.69 187.501C132.456 187.318 132.161 187.227 131.806 187.227C131.465 187.227 131.179 187.314 130.947 187.487C130.715 187.657 130.54 187.896 130.421 188.204C130.303 188.509 130.244 188.866 130.244 189.273Z" fill="white"/>
<path d="M170.755 184.727H171.806L174.277 190.764H174.363L176.834 184.727H177.885V192H177.062V186.474H176.991L174.718 192H173.922L171.65 186.474H171.579V192H170.755V184.727ZM181.143 192.128C180.797 192.128 180.483 192.063 180.202 191.933C179.92 191.8 179.696 191.609 179.53 191.361C179.365 191.11 179.282 190.807 179.282 190.452C179.282 190.139 179.343 189.886 179.467 189.692C179.59 189.495 179.754 189.341 179.96 189.23C180.166 189.119 180.393 189.036 180.642 188.982C180.893 188.925 181.145 188.88 181.398 188.847C181.73 188.804 181.998 188.772 182.204 188.751C182.413 188.727 182.564 188.688 182.659 188.634C182.756 188.579 182.805 188.484 182.805 188.349V188.321C182.805 187.971 182.709 187.698 182.517 187.504C182.328 187.31 182.04 187.213 181.654 187.213C181.254 187.213 180.94 187.301 180.713 187.476C180.486 187.651 180.326 187.838 180.234 188.037L179.438 187.753C179.58 187.421 179.77 187.163 180.006 186.979C180.245 186.792 180.506 186.661 180.788 186.588C181.072 186.512 181.351 186.474 181.626 186.474C181.801 186.474 182.002 186.496 182.229 186.538C182.459 186.579 182.68 186.663 182.893 186.79C183.109 186.918 183.288 187.111 183.43 187.369C183.572 187.627 183.643 187.973 183.643 188.406V192H182.805V191.261H182.762C182.705 191.38 182.61 191.506 182.478 191.641C182.345 191.776 182.169 191.891 181.949 191.986C181.729 192.08 181.46 192.128 181.143 192.128ZM181.271 191.375C181.602 191.375 181.881 191.31 182.109 191.18C182.338 191.049 182.511 190.881 182.627 190.675C182.745 190.469 182.805 190.253 182.805 190.026V189.259C182.769 189.301 182.691 189.34 182.57 189.376C182.452 189.409 182.315 189.438 182.158 189.464C182.004 189.488 181.854 189.509 181.707 189.528C181.563 189.545 181.446 189.559 181.356 189.571C181.138 189.599 180.934 189.646 180.745 189.71C180.558 189.771 180.406 189.865 180.29 189.99C180.177 190.113 180.12 190.281 180.12 190.494C180.12 190.786 180.228 191.006 180.443 191.155C180.661 191.302 180.937 191.375 181.271 191.375ZM185.172 192V186.545H185.982V187.369H186.039C186.138 187.099 186.318 186.88 186.579 186.712C186.839 186.544 187.133 186.46 187.459 186.46C187.521 186.46 187.598 186.461 187.69 186.464C187.782 186.466 187.852 186.47 187.9 186.474V187.327C187.871 187.32 187.806 187.309 187.704 187.295C187.605 187.278 187.499 187.27 187.388 187.27C187.123 187.27 186.886 187.326 186.678 187.437C186.472 187.546 186.309 187.697 186.188 187.891C186.07 188.083 186.01 188.302 186.01 188.548V192H185.172Z" fill="white"/>
<path d="M223.893 192H222.97L225.64 184.727H226.549L229.22 192H228.296L226.123 185.878H226.066L223.893 192ZM224.234 189.159H227.955V189.94H224.234V189.159ZM230.239 194.045V186.545H231.048V187.412H231.148C231.209 187.317 231.295 187.196 231.403 187.05C231.515 186.901 231.673 186.768 231.879 186.652C232.088 186.534 232.369 186.474 232.725 186.474C233.184 186.474 233.589 186.589 233.939 186.819C234.289 187.049 234.563 187.374 234.759 187.795C234.956 188.217 235.054 188.714 235.054 189.287C235.054 189.865 234.956 190.365 234.759 190.789C234.563 191.21 234.291 191.537 233.943 191.769C233.595 191.999 233.193 192.114 232.739 192.114C232.388 192.114 232.108 192.056 231.897 191.94C231.686 191.821 231.524 191.687 231.411 191.538C231.297 191.387 231.209 191.261 231.148 191.162H231.077V194.045H230.239ZM231.063 189.273C231.063 189.685 231.123 190.048 231.244 190.363C231.364 190.675 231.541 190.92 231.773 191.098C232.005 191.273 232.289 191.361 232.625 191.361C232.975 191.361 233.268 191.268 233.502 191.084C233.739 190.897 233.917 190.646 234.035 190.331C234.156 190.014 234.216 189.661 234.216 189.273C234.216 188.889 234.157 188.544 234.038 188.236C233.922 187.926 233.746 187.681 233.509 187.501C233.275 187.318 232.98 187.227 232.625 187.227C232.284 187.227 231.998 187.314 231.766 187.487C231.534 187.657 231.359 187.896 231.24 188.204C231.122 188.509 231.063 188.866 231.063 189.273ZM236.332 192V186.545H237.142V187.369H237.199C237.298 187.099 237.478 186.88 237.739 186.712C237.999 186.544 238.293 186.46 238.619 186.46C238.681 186.46 238.758 186.461 238.85 186.464C238.943 186.466 239.012 186.47 239.06 186.474V187.327C239.031 187.32 238.966 187.309 238.864 187.295C238.765 187.278 238.66 187.27 238.548 187.27C238.283 187.27 238.046 187.326 237.838 187.437C237.632 187.546 237.469 187.697 237.348 187.891C237.23 188.083 237.171 188.302 237.171 188.548V192H236.332Z" fill="white"/>
<path d="M275.429 184.727H276.48L278.951 190.764H279.036L281.508 184.727H282.559V192H281.735V186.474H281.664L279.392 192H278.596L276.323 186.474H276.252V192H275.429V184.727ZM285.816 192.128C285.471 192.128 285.157 192.063 284.875 191.933C284.594 191.8 284.37 191.609 284.204 191.361C284.039 191.11 283.956 190.807 283.956 190.452C283.956 190.139 284.017 189.886 284.14 189.692C284.263 189.495 284.428 189.341 284.634 189.23C284.84 189.119 285.067 189.036 285.316 188.982C285.567 188.925 285.819 188.88 286.072 188.847C286.404 188.804 286.672 188.772 286.878 188.751C287.087 188.727 287.238 188.688 287.333 188.634C287.43 188.579 287.478 188.484 287.478 188.349V188.321C287.478 187.971 287.383 187.698 287.191 187.504C287.001 187.31 286.714 187.213 286.328 187.213C285.928 187.213 285.614 187.301 285.387 187.476C285.16 187.651 285 187.838 284.907 188.037L284.112 187.753C284.254 187.421 284.443 187.163 284.68 186.979C284.919 186.792 285.18 186.661 285.461 186.588C285.745 186.512 286.025 186.474 286.299 186.474C286.475 186.474 286.676 186.496 286.903 186.538C287.133 186.579 287.354 186.663 287.567 186.79C287.783 186.918 287.961 187.111 288.103 187.369C288.245 187.627 288.316 187.973 288.316 188.406V192H287.478V191.261H287.436C287.379 191.38 287.284 191.506 287.152 191.641C287.019 191.776 286.843 191.891 286.623 191.986C286.402 192.08 286.134 192.128 285.816 192.128ZM285.944 191.375C286.276 191.375 286.555 191.31 286.782 191.18C287.012 191.049 287.185 190.881 287.301 190.675C287.419 190.469 287.478 190.253 287.478 190.026V189.259C287.443 189.301 287.365 189.34 287.244 189.376C287.126 189.409 286.988 189.438 286.832 189.464C286.678 189.488 286.528 189.509 286.381 189.528C286.237 189.545 286.12 189.559 286.03 189.571C285.812 189.599 285.608 189.646 285.419 189.71C285.232 189.771 285.08 189.865 284.964 189.99C284.851 190.113 284.794 190.281 284.794 190.494C284.794 190.786 284.901 191.006 285.117 191.155C285.335 191.302 285.611 191.375 285.944 191.375ZM289.846 192V186.545H290.684V192H289.846ZM290.272 185.636C290.109 185.636 289.968 185.581 289.85 185.469C289.734 185.358 289.676 185.224 289.676 185.068C289.676 184.912 289.734 184.778 289.85 184.667C289.968 184.556 290.109 184.5 290.272 184.5C290.436 184.5 290.575 184.556 290.691 184.667C290.81 184.778 290.869 184.912 290.869 185.068C290.869 185.224 290.81 185.358 290.691 185.469C290.575 185.581 290.436 185.636 290.272 185.636Z" fill="white"/>
<path d="M332.12 184.727H333.001V189.926C333.001 190.39 332.915 190.784 332.745 191.109C332.574 191.433 332.334 191.679 332.024 191.847C331.714 192.015 331.348 192.099 330.927 192.099C330.529 192.099 330.175 192.027 329.865 191.883C329.555 191.736 329.311 191.528 329.133 191.258C328.956 190.988 328.867 190.667 328.867 190.295H329.733C329.733 190.501 329.784 190.681 329.886 190.835C329.99 190.987 330.132 191.105 330.312 191.19C330.492 191.276 330.697 191.318 330.927 191.318C331.18 191.318 331.395 191.265 331.573 191.158C331.751 191.052 331.885 190.896 331.978 190.69C332.073 190.481 332.12 190.227 332.12 189.926V184.727ZM338.089 189.77V186.545H338.927V192H338.089V191.077H338.032C337.905 191.354 337.706 191.589 337.436 191.783C337.166 191.975 336.825 192.071 336.413 192.071C336.072 192.071 335.769 191.996 335.504 191.847C335.239 191.696 335.031 191.469 334.879 191.165C334.728 190.86 334.652 190.475 334.652 190.011V186.545H335.49V189.955C335.49 190.352 335.601 190.67 335.824 190.906C336.049 191.143 336.335 191.261 336.683 191.261C336.891 191.261 337.103 191.208 337.319 191.102C337.537 190.995 337.719 190.832 337.866 190.612C338.015 190.391 338.089 190.111 338.089 189.77ZM341.3 188.719V192H340.462V186.545H341.272V187.398H341.343C341.471 187.121 341.665 186.898 341.925 186.73C342.186 186.56 342.522 186.474 342.934 186.474C343.303 186.474 343.626 186.55 343.903 186.702C344.18 186.851 344.396 187.078 344.55 187.384C344.704 187.687 344.781 188.07 344.781 188.534V192H343.942V188.591C343.942 188.162 343.831 187.829 343.609 187.589C343.386 187.348 343.081 187.227 342.692 187.227C342.425 187.227 342.186 187.285 341.975 187.401C341.767 187.517 341.602 187.687 341.482 187.909C341.361 188.132 341.3 188.402 341.3 188.719Z" fill="white"/>
<rect x="54" y="93" width="31" height="48" fill="#63ABFD"/>
<rect x="109" y="45" width="31" height="48" fill="#63ABFD"/>
<rect x="162" y="93" width="31" height="20" fill="#63ABFD"/>
<rect x="216" y="54" width="31" height="39" fill="#63ABFD"/>
<rect x="268" y="27" width="31" height="66" fill="#63ABFD"/>
<rect x="320" y="45" width="31" height="48" fill="#63ABFD"/>
<path d="M43 103.5L69.5 92.5L124.5 58.5L177.5 101.5L232 70L283.5 52.5L335.5 75.5H363.5" stroke="#E697FF" stroke-width="2"/>
<circle cx="69.5" cy="92.5" r="1.5" fill="#A155B9"/>
<circle cx="124.5" cy="58.5" r="1.5" fill="#A155B9"/>
<circle cx="177.5" cy="101.5" r="1.5" fill="#A155B9"/>
<circle cx="231.5" cy="70.5" r="1.5" fill="#A155B9"/>
<circle cx="283.5" cy="52.5" r="1.5" fill="#A155B9"/>
<circle cx="335.5" cy="75.5" r="1.5" fill="#A155B9"/>
</svg>
