<svg width="366" height="197" viewBox="0 0 366 197" fill="none" xmlns="http://www.w3.org/2000/svg">
<rect x="43.5" y="11.5" width="320" height="166" stroke="#4F4F4F"/>
<path d="M43 66H364" stroke="#4F4F4F"/>
<path d="M43 39H364" stroke="#4F4F4F"/>
<path d="M43 93H364" stroke="#4F4F4F"/>
<path d="M43 120H364" stroke="#4F4F4F"/>
<path d="M43 147H364" stroke="#4F4F4F"/>
<path d="M97 11L97 178" stroke="#4F4F4F"/>
<path d="M150 11L150 178" stroke="#4F4F4F"/>
<path d="M203 11L203 178" stroke="#4F4F4F"/>
<path d="M256 11L256 178" stroke="#4F4F4F"/>
<path d="M309 11L309 178" stroke="#4F4F4F"/>
<path d="M24.25 178.119C23.608 178.119 23.0611 177.945 22.6094 177.595C22.1577 177.243 21.8125 176.733 21.5739 176.065C21.3352 175.395 21.2159 174.585 21.2159 173.636C21.2159 172.693 21.3352 171.888 21.5739 171.22C21.8153 170.55 22.1619 170.038 22.6136 169.686C23.0682 169.331 23.6136 169.153 24.25 169.153C24.8864 169.153 25.4304 169.331 25.8821 169.686C26.3366 170.038 26.6832 170.55 26.9219 171.22C27.1634 171.888 27.2841 172.693 27.2841 173.636C27.2841 174.585 27.1648 175.395 26.9261 176.065C26.6875 176.733 26.3423 177.243 25.8906 177.595C25.4389 177.945 24.892 178.119 24.25 178.119ZM24.25 177.182C24.8864 177.182 25.3807 176.875 25.733 176.261C26.0852 175.648 26.2614 174.773 26.2614 173.636C26.2614 172.881 26.1804 172.237 26.0185 171.706C25.8594 171.175 25.6293 170.77 25.3281 170.491C25.0298 170.213 24.6705 170.074 24.25 170.074C23.6193 170.074 23.1264 170.385 22.7713 171.007C22.4162 171.626 22.2386 172.503 22.2386 173.636C22.2386 174.392 22.3182 175.034 22.4773 175.562C22.6364 176.091 22.8651 176.493 23.1634 176.768C23.4645 177.044 23.8267 177.182 24.25 177.182Z" fill="white"/>
<path d="M18.8935 138.273V147H17.8366V139.381H17.7855L15.6548 140.795V139.722L17.8366 138.273H18.8935ZM24.25 147.119C23.608 147.119 23.0611 146.945 22.6094 146.595C22.1577 146.243 21.8125 145.733 21.5739 145.065C21.3352 144.395 21.2159 143.585 21.2159 142.636C21.2159 141.693 21.3352 140.888 21.5739 140.22C21.8153 139.55 22.1619 139.038 22.6136 138.686C23.0682 138.331 23.6136 138.153 24.25 138.153C24.8864 138.153 25.4304 138.331 25.8821 138.686C26.3366 139.038 26.6832 139.55 26.9219 140.22C27.1634 140.888 27.2841 141.693 27.2841 142.636C27.2841 143.585 27.1648 144.395 26.9261 145.065C26.6875 145.733 26.3423 146.243 25.8906 146.595C25.4389 146.945 24.892 147.119 24.25 147.119ZM24.25 146.182C24.8864 146.182 25.3807 145.875 25.733 145.261C26.0852 144.648 26.2614 143.773 26.2614 142.636C26.2614 141.881 26.1804 141.237 26.0185 140.706C25.8594 140.175 25.6293 139.77 25.3281 139.491C25.0298 139.213 24.6705 139.074 24.25 139.074C23.6193 139.074 23.1264 139.385 22.7713 140.007C22.4162 140.626 22.2386 141.503 22.2386 142.636C22.2386 143.392 22.3182 144.034 22.4773 144.562C22.6364 145.091 22.8651 145.493 23.1634 145.768C23.4645 146.044 23.8267 146.182 24.25 146.182Z" fill="white"/>
<path d="M14.1378 120V119.233L17.0185 116.08C17.3565 115.71 17.6349 115.389 17.8537 115.116C18.0724 114.841 18.2344 114.582 18.3395 114.341C18.4474 114.097 18.5014 113.841 18.5014 113.574C18.5014 113.267 18.4276 113.001 18.2798 112.777C18.1349 112.553 17.9361 112.379 17.6832 112.257C17.4304 112.135 17.1463 112.074 16.831 112.074C16.4957 112.074 16.2031 112.143 15.9531 112.283C15.706 112.419 15.5142 112.611 15.3778 112.858C15.2443 113.105 15.1776 113.395 15.1776 113.727H14.1719C14.1719 113.216 14.2898 112.767 14.5256 112.381C14.7614 111.994 15.0824 111.693 15.4886 111.477C15.8977 111.261 16.3565 111.153 16.8651 111.153C17.3764 111.153 17.8295 111.261 18.2244 111.477C18.6193 111.693 18.929 111.984 19.1534 112.351C19.3778 112.717 19.4901 113.125 19.4901 113.574C19.4901 113.895 19.4318 114.209 19.3153 114.516C19.2017 114.82 19.0028 115.159 18.7188 115.534C18.4375 115.906 18.0469 116.361 17.5469 116.898L15.5866 118.994V119.062H19.6435V120H14.1378ZM24.25 120.119C23.608 120.119 23.0611 119.945 22.6094 119.595C22.1577 119.243 21.8125 118.733 21.5739 118.065C21.3352 117.395 21.2159 116.585 21.2159 115.636C21.2159 114.693 21.3352 113.888 21.5739 113.22C21.8153 112.55 22.1619 112.038 22.6136 111.686C23.0682 111.331 23.6136 111.153 24.25 111.153C24.8864 111.153 25.4304 111.331 25.8821 111.686C26.3366 112.038 26.6832 112.55 26.9219 113.22C27.1634 113.888 27.2841 114.693 27.2841 115.636C27.2841 116.585 27.1648 117.395 26.9261 118.065C26.6875 118.733 26.3423 119.243 25.8906 119.595C25.4389 119.945 24.892 120.119 24.25 120.119ZM24.25 119.182C24.8864 119.182 25.3807 118.875 25.733 118.261C26.0852 117.648 26.2614 116.773 26.2614 115.636C26.2614 114.881 26.1804 114.237 26.0185 113.706C25.8594 113.175 25.6293 112.77 25.3281 112.491C25.0298 112.213 24.6705 112.074 24.25 112.074C23.6193 112.074 23.1264 112.385 22.7713 113.007C22.4162 113.626 22.2386 114.503 22.2386 115.636C22.2386 116.392 22.3182 117.034 22.4773 117.562C22.6364 118.091 22.8651 118.493 23.1634 118.768C23.4645 119.044 23.8267 119.182 24.25 119.182Z" fill="white"/>
<path d="M16.7116 94.1193C16.1491 94.1193 15.6477 94.0227 15.2074 93.8295C14.7699 93.6364 14.4219 93.3679 14.1634 93.0241C13.9077 92.6776 13.7685 92.2756 13.7457 91.8182H14.8196C14.8423 92.0994 14.9389 92.3423 15.1094 92.5469C15.2798 92.7486 15.5028 92.9048 15.7784 93.0156C16.054 93.1264 16.3594 93.1818 16.6946 93.1818C17.0696 93.1818 17.402 93.1165 17.6918 92.9858C17.9815 92.8551 18.2088 92.6733 18.3736 92.4403C18.5384 92.2074 18.6207 91.9375 18.6207 91.6307C18.6207 91.3097 18.5412 91.027 18.3821 90.7827C18.223 90.5355 17.9901 90.3423 17.6832 90.2031C17.3764 90.0639 17.0014 89.9943 16.5582 89.9943H15.8594V89.0568H16.5582C16.9048 89.0568 17.2088 88.9943 17.4702 88.8693C17.7344 88.7443 17.9403 88.5682 18.0881 88.3409C18.2386 88.1136 18.3139 87.8466 18.3139 87.5398C18.3139 87.2443 18.2486 86.9872 18.1179 86.7685C17.9872 86.5497 17.8026 86.3793 17.5639 86.2571C17.3281 86.1349 17.0497 86.0739 16.7287 86.0739C16.4276 86.0739 16.1435 86.1293 15.8764 86.2401C15.6122 86.348 15.3963 86.5057 15.2287 86.7131C15.0611 86.9176 14.9702 87.1648 14.956 87.4545H13.9332C13.9503 86.9972 14.0881 86.5966 14.3466 86.2528C14.6051 85.9062 14.9432 85.6364 15.3608 85.4432C15.7813 85.25 16.2429 85.1534 16.7457 85.1534C17.2855 85.1534 17.7486 85.2628 18.1349 85.4815C18.5213 85.6974 18.8182 85.983 19.0256 86.3381C19.233 86.6932 19.3366 87.0767 19.3366 87.4886C19.3366 87.9801 19.2074 88.3991 18.9489 88.7457C18.6932 89.0923 18.3452 89.3324 17.9048 89.4659V89.5341C18.456 89.625 18.8864 89.8594 19.196 90.2372C19.5057 90.6122 19.6605 91.0767 19.6605 91.6307C19.6605 92.1051 19.5313 92.5312 19.2727 92.9091C19.017 93.2841 18.6676 93.5795 18.2244 93.7955C17.7813 94.0114 17.277 94.1193 16.7116 94.1193ZM24.25 94.1193C23.608 94.1193 23.0611 93.9446 22.6094 93.5952C22.1577 93.2429 21.8125 92.733 21.5739 92.0653C21.3352 91.3949 21.2159 90.5852 21.2159 89.6364C21.2159 88.6932 21.3352 87.8878 21.5739 87.2202C21.8153 86.5497 22.1619 86.0384 22.6136 85.6861C23.0682 85.331 23.6136 85.1534 24.25 85.1534C24.8864 85.1534 25.4304 85.331 25.8821 85.6861C26.3366 86.0384 26.6832 86.5497 26.9219 87.2202C27.1634 87.8878 27.2841 88.6932 27.2841 89.6364C27.2841 90.5852 27.1648 91.3949 26.9261 92.0653C26.6875 92.733 26.3423 93.2429 25.8906 93.5952C25.4389 93.9446 24.892 94.1193 24.25 94.1193ZM24.25 93.1818C24.8864 93.1818 25.3807 92.875 25.733 92.2614C26.0852 91.6477 26.2614 90.7727 26.2614 89.6364C26.2614 88.8807 26.1804 88.2372 26.0185 87.706C25.8594 87.1747 25.6293 86.7699 25.3281 86.4915C25.0298 86.2131 24.6705 86.0739 24.25 86.0739C23.6193 86.0739 23.1264 86.3849 22.7713 87.0071C22.4162 87.6264 22.2386 88.5028 22.2386 89.6364C22.2386 90.392 22.3182 91.0341 22.4773 91.5625C22.6364 92.0909 22.8651 92.4929 23.1634 92.7685C23.4645 93.044 23.8267 93.1818 24.25 93.1818Z" fill="white"/>
<path d="M13.4996 64.2102V63.3409L17.3349 57.2727H17.9656V58.6193H17.5394L14.6417 63.2045V63.2727H19.8065V64.2102H13.4996ZM17.6076 66V63.946V63.5412V57.2727H18.6133V66H17.6076ZM24.25 66.1193C23.608 66.1193 23.0611 65.9446 22.6094 65.5952C22.1577 65.2429 21.8125 64.733 21.5739 64.0653C21.3352 63.3949 21.2159 62.5852 21.2159 61.6364C21.2159 60.6932 21.3352 59.8878 21.5739 59.2202C21.8153 58.5497 22.1619 58.0384 22.6136 57.6861C23.0682 57.331 23.6136 57.1534 24.25 57.1534C24.8864 57.1534 25.4304 57.331 25.8821 57.6861C26.3366 58.0384 26.6832 58.5497 26.9219 59.2202C27.1634 59.8878 27.2841 60.6932 27.2841 61.6364C27.2841 62.5852 27.1648 63.3949 26.9261 64.0653C26.6875 64.733 26.3423 65.2429 25.8906 65.5952C25.4389 65.9446 24.892 66.1193 24.25 66.1193ZM24.25 65.1818C24.8864 65.1818 25.3807 64.875 25.733 64.2614C26.0852 63.6477 26.2614 62.7727 26.2614 61.6364C26.2614 60.8807 26.1804 60.2372 26.0185 59.706C25.8594 59.1747 25.6293 58.7699 25.3281 58.4915C25.0298 58.2131 24.6705 58.0739 24.25 58.0739C23.6193 58.0739 23.1264 58.3849 22.7713 59.0071C22.4162 59.6264 22.2386 60.5028 22.2386 61.6364C22.2386 62.392 22.3182 63.0341 22.4773 63.5625C22.6364 64.0909 22.8651 64.4929 23.1634 64.7685C23.4645 65.044 23.8267 65.1818 24.25 65.1818Z" fill="white"/>
<path d="M16.8299 39.1193C16.3299 39.1193 15.8796 39.0199 15.479 38.821C15.0785 38.6222 14.7575 38.3494 14.516 38.0028C14.2745 37.6562 14.1424 37.2614 14.1197 36.8182H15.1424C15.1822 37.2131 15.3612 37.5398 15.6793 37.7983C16.0004 38.054 16.3839 38.1818 16.8299 38.1818C17.1879 38.1818 17.506 38.098 17.7844 37.9304C18.0657 37.7628 18.2859 37.5327 18.445 37.2401C18.6069 36.9446 18.6879 36.6108 18.6879 36.2386C18.6879 35.858 18.604 35.5185 18.4364 35.2202C18.2717 34.919 18.0444 34.6818 17.7546 34.5085C17.4648 34.3352 17.1339 34.2472 16.7617 34.2443C16.4947 34.2415 16.2205 34.2827 15.9393 34.3679C15.658 34.4503 15.4265 34.5568 15.2447 34.6875L14.256 34.5682L14.7844 30.2727H19.3185V31.2102H15.6708L15.364 33.7841H15.4151C15.5941 33.642 15.8185 33.5241 16.0884 33.4304C16.3583 33.3366 16.6396 33.2898 16.9322 33.2898C17.4663 33.2898 17.9421 33.4176 18.3597 33.6733C18.7802 33.9261 19.1097 34.2727 19.3484 34.7131C19.5898 35.1534 19.7106 35.6562 19.7106 36.2216C19.7106 36.7784 19.5856 37.2756 19.3356 37.7131C19.0884 38.1477 18.7475 38.4915 18.3129 38.7443C17.8782 38.9943 17.3839 39.1193 16.8299 39.1193ZM24.25 39.1193C23.608 39.1193 23.0611 38.9446 22.6094 38.5952C22.1577 38.2429 21.8125 37.733 21.5739 37.0653C21.3352 36.3949 21.2159 35.5852 21.2159 34.6364C21.2159 33.6932 21.3352 32.8878 21.5739 32.2202C21.8153 31.5497 22.1619 31.0384 22.6136 30.6861C23.0682 30.331 23.6136 30.1534 24.25 30.1534C24.8864 30.1534 25.4304 30.331 25.8821 30.6861C26.3366 31.0384 26.6832 31.5497 26.9219 32.2202C27.1634 32.8878 27.2841 33.6932 27.2841 34.6364C27.2841 35.5852 27.1648 36.3949 26.9261 37.0653C26.6875 37.733 26.3423 38.2429 25.8906 38.5952C25.4389 38.9446 24.892 39.1193 24.25 39.1193ZM24.25 38.1818C24.8864 38.1818 25.3807 37.875 25.733 37.2614C26.0852 36.6477 26.2614 35.7727 26.2614 34.6364C26.2614 33.8807 26.1804 33.2372 26.0185 32.706C25.8594 32.1747 25.6293 31.7699 25.3281 31.4915C25.0298 31.2131 24.6705 31.0739 24.25 31.0739C23.6193 31.0739 23.1264 31.3849 22.7713 32.0071C22.4162 32.6264 22.2386 33.5028 22.2386 34.6364C22.2386 35.392 22.3182 36.0341 22.4773 36.5625C22.6364 37.0909 22.8651 37.4929 23.1634 37.7685C23.4645 38.044 23.8267 38.1818 24.25 38.1818Z" fill="white"/>
<path d="M16.8129 12.1193C16.4549 12.1136 16.0969 12.0455 15.739 11.9148C15.381 11.7841 15.0543 11.5639 14.7589 11.2543C14.4634 10.9418 14.2262 10.5199 14.0472 9.98864C13.8683 9.45455 13.7788 8.78409 13.7788 7.97727C13.7788 7.20455 13.8512 6.51989 13.9961 5.9233C14.141 5.32386 14.3512 4.8196 14.6268 4.41051C14.9023 3.99858 15.2347 3.68608 15.6239 3.47301C16.016 3.25994 16.4577 3.15341 16.9492 3.15341C17.4379 3.15341 17.8725 3.25142 18.2532 3.44744C18.6367 3.64062 18.9492 3.91051 19.1907 4.2571C19.4322 4.60369 19.5884 5.00284 19.6594 5.45455H18.6197C18.5231 5.0625 18.3356 4.73722 18.0572 4.47869C17.7788 4.22017 17.4094 4.09091 16.9492 4.09091C16.2731 4.09091 15.7404 4.38494 15.3512 4.97301C14.9648 5.56108 14.7702 6.38636 14.7674 7.44886H14.8356C14.9947 7.20739 15.1836 7.00142 15.4023 6.83097C15.6239 6.65767 15.8683 6.52415 16.1353 6.4304C16.4023 6.33665 16.685 6.28977 16.9833 6.28977C17.4833 6.28977 17.9407 6.41477 18.3555 6.66477C18.7702 6.91193 19.1026 7.25426 19.3526 7.69176C19.6026 8.12642 19.7276 8.625 19.7276 9.1875C19.7276 9.72727 19.6069 10.2216 19.3654 10.6705C19.1239 11.1165 18.7844 11.4716 18.3469 11.7358C17.9123 11.9972 17.4009 12.125 16.8129 12.1193ZM16.8129 11.1818C17.1708 11.1818 17.4918 11.0923 17.7759 10.9134C18.0629 10.7344 18.2887 10.4943 18.4535 10.1932C18.6211 9.89205 18.7049 9.55682 18.7049 9.1875C18.7049 8.8267 18.6239 8.49858 18.462 8.20312C18.3029 7.90483 18.0827 7.66761 17.8015 7.49148C17.5231 7.31534 17.2049 7.22727 16.8469 7.22727C16.5771 7.22727 16.3256 7.28125 16.0927 7.3892C15.8597 7.49432 15.6552 7.6392 15.479 7.82386C15.3058 8.00852 15.1694 8.22017 15.07 8.45881C14.9705 8.6946 14.9208 8.94318 14.9208 9.20455C14.9208 9.55114 15.0018 9.875 15.1637 10.1761C15.3285 10.4773 15.5529 10.7202 15.837 10.9048C16.1239 11.0895 16.4492 11.1818 16.8129 11.1818ZM24.25 12.1193C23.608 12.1193 23.0611 11.9446 22.6094 11.5952C22.1577 11.2429 21.8125 10.733 21.5739 10.0653C21.3352 9.39489 21.2159 8.58523 21.2159 7.63636C21.2159 6.69318 21.3352 5.88778 21.5739 5.22017C21.8153 4.54972 22.1619 4.03835 22.6136 3.68608C23.0682 3.33097 23.6136 3.15341 24.25 3.15341C24.8864 3.15341 25.4304 3.33097 25.8821 3.68608C26.3366 4.03835 26.6832 4.54972 26.9219 5.22017C27.1634 5.88778 27.2841 6.69318 27.2841 7.63636C27.2841 8.58523 27.1648 9.39489 26.9261 10.0653C26.6875 10.733 26.3423 11.2429 25.8906 11.5952C25.4389 11.9446 24.892 12.1193 24.25 12.1193ZM24.25 11.1818C24.8864 11.1818 25.3807 10.875 25.733 10.2614C26.0852 9.64773 26.2614 8.77273 26.2614 7.63636C26.2614 6.88068 26.1804 6.23722 26.0185 5.70597C25.8594 5.17472 25.6293 4.76989 25.3281 4.49148C25.0298 4.21307 24.6705 4.07386 24.25 4.07386C23.6193 4.07386 23.1264 4.38494 22.7713 5.0071C22.4162 5.62642 22.2386 6.50284 22.2386 7.63636C22.2386 8.39205 22.3182 9.03409 22.4773 9.5625C22.6364 10.0909 22.8651 10.4929 23.1634 10.7685C23.4645 11.044 23.8267 11.1818 24.25 11.1818Z" fill="white"/>
<path d="M61.8604 184.727V192H60.9798V185.651H60.9371L59.1616 186.83V185.935L60.9798 184.727H61.8604ZM66.3242 192.099C65.7892 192.099 65.3335 191.954 64.957 191.663C64.5806 191.369 64.293 190.944 64.0941 190.388C63.8952 189.829 63.7958 189.154 63.7958 188.364C63.7958 187.578 63.8952 186.906 64.0941 186.35C64.2953 185.791 64.5842 185.365 64.9606 185.072C65.3394 184.776 65.7939 184.628 66.3242 184.628C66.8545 184.628 67.3079 184.776 67.6843 185.072C68.0631 185.365 68.3519 185.791 68.5508 186.35C68.752 186.906 68.8526 187.578 68.8526 188.364C68.8526 189.154 68.7532 189.829 68.5543 190.388C68.3555 190.944 68.0678 191.369 67.6914 191.663C67.315 191.954 66.8593 192.099 66.3242 192.099ZM66.3242 191.318C66.8545 191.318 67.2665 191.062 67.56 190.551C67.8536 190.04 68.0004 189.311 68.0004 188.364C68.0004 187.734 67.9329 187.198 67.7979 186.755C67.6654 186.312 67.4736 185.975 67.2227 185.743C66.9741 185.511 66.6746 185.395 66.3242 185.395C65.7987 185.395 65.3879 185.654 65.092 186.173C64.796 186.689 64.6481 187.419 64.6481 188.364C64.6481 188.993 64.7144 189.528 64.8469 189.969C64.9795 190.409 65.1701 190.744 65.4187 190.974C65.6696 191.203 65.9715 191.318 66.3242 191.318Z" fill="white"/>
<path d="M120.6 192V191.361L123.001 188.733C123.283 188.425 123.515 188.158 123.697 187.93C123.879 187.701 124.014 187.485 124.102 187.284C124.192 187.08 124.237 186.867 124.237 186.645C124.237 186.389 124.175 186.168 124.052 185.981C123.931 185.794 123.766 185.649 123.555 185.548C123.344 185.446 123.108 185.395 122.845 185.395C122.565 185.395 122.322 185.453 122.113 185.569C121.907 185.683 121.748 185.842 121.634 186.048C121.523 186.254 121.467 186.496 121.467 186.773H120.629C120.629 186.347 120.727 185.973 120.924 185.651C121.12 185.329 121.388 185.078 121.726 184.898C122.067 184.718 122.449 184.628 122.873 184.628C123.299 184.628 123.677 184.718 124.006 184.898C124.335 185.078 124.593 185.32 124.78 185.626C124.967 185.931 125.061 186.271 125.061 186.645C125.061 186.912 125.012 187.174 124.915 187.43C124.82 187.683 124.655 187.966 124.418 188.278C124.184 188.589 123.858 188.967 123.441 189.415L121.808 191.162V191.219H125.189V192H120.6ZM129.027 192.099C128.492 192.099 128.037 191.954 127.66 191.663C127.284 191.369 126.996 190.944 126.797 190.388C126.598 189.829 126.499 189.154 126.499 188.364C126.499 187.578 126.598 186.906 126.797 186.35C126.998 185.791 127.287 185.365 127.664 185.072C128.042 184.776 128.497 184.628 129.027 184.628C129.558 184.628 130.011 184.776 130.387 185.072C130.766 185.365 131.055 185.791 131.254 186.35C131.455 186.906 131.556 187.578 131.556 188.364C131.556 189.154 131.456 189.829 131.257 190.388C131.059 190.944 130.771 191.369 130.395 191.663C130.018 191.954 129.562 192.099 129.027 192.099ZM129.027 191.318C129.558 191.318 129.97 191.062 130.263 190.551C130.557 190.04 130.703 189.311 130.703 188.364C130.703 187.734 130.636 187.198 130.501 186.755C130.368 186.312 130.177 185.975 129.926 185.743C129.677 185.511 129.378 185.395 129.027 185.395C128.502 185.395 128.091 185.654 127.795 186.173C127.499 186.689 127.351 187.419 127.351 188.364C127.351 188.993 127.417 189.528 127.55 189.969C127.683 190.409 127.873 190.744 128.122 190.974C128.373 191.203 128.675 191.318 129.027 191.318Z" fill="white"/>
<path d="M175.902 192.099C175.433 192.099 175.015 192.019 174.648 191.858C174.283 191.697 173.993 191.473 173.778 191.187C173.565 190.898 173.449 190.563 173.43 190.182H174.325C174.344 190.416 174.424 190.619 174.566 190.789C174.708 190.957 174.894 191.087 175.124 191.18C175.354 191.272 175.608 191.318 175.887 191.318C176.2 191.318 176.477 191.264 176.718 191.155C176.96 191.046 177.149 190.894 177.287 190.7C177.424 190.506 177.493 190.281 177.493 190.026C177.493 189.758 177.426 189.522 177.294 189.319C177.161 189.113 176.967 188.952 176.711 188.836C176.456 188.72 176.143 188.662 175.774 188.662H175.191V187.881H175.774C176.063 187.881 176.316 187.829 176.534 187.724C176.754 187.62 176.926 187.473 177.049 187.284C177.174 187.095 177.237 186.872 177.237 186.616C177.237 186.37 177.182 186.156 177.074 185.974C176.965 185.791 176.811 185.649 176.612 185.548C176.415 185.446 176.183 185.395 175.916 185.395C175.665 185.395 175.428 185.441 175.206 185.533C174.985 185.623 174.806 185.755 174.666 185.928C174.526 186.098 174.45 186.304 174.439 186.545H173.586C173.6 186.164 173.715 185.83 173.931 185.544C174.146 185.255 174.428 185.03 174.776 184.869C175.126 184.708 175.511 184.628 175.93 184.628C176.38 184.628 176.766 184.719 177.088 184.901C177.41 185.081 177.657 185.319 177.83 185.615C178.003 185.911 178.089 186.231 178.089 186.574C178.089 186.983 177.981 187.333 177.766 187.621C177.553 187.91 177.263 188.11 176.896 188.222V188.278C177.355 188.354 177.714 188.549 177.972 188.864C178.23 189.177 178.359 189.564 178.359 190.026C178.359 190.421 178.251 190.776 178.036 191.091C177.823 191.403 177.532 191.65 177.162 191.83C176.793 192.009 176.373 192.099 175.902 192.099ZM182.184 192.099C181.649 192.099 181.193 191.954 180.816 191.663C180.44 191.369 180.152 190.944 179.953 190.388C179.755 189.829 179.655 189.154 179.655 188.364C179.655 187.578 179.755 186.906 179.953 186.35C180.155 185.791 180.444 185.365 180.82 185.072C181.199 184.776 181.653 184.628 182.184 184.628C182.714 184.628 183.167 184.776 183.544 185.072C183.922 185.365 184.211 185.791 184.41 186.35C184.611 186.906 184.712 187.578 184.712 188.364C184.712 189.154 184.613 189.829 184.414 190.388C184.215 190.944 183.927 191.369 183.551 191.663C183.174 191.954 182.719 192.099 182.184 192.099ZM182.184 191.318C182.714 191.318 183.126 191.062 183.419 190.551C183.713 190.04 183.86 189.311 183.86 188.364C183.86 187.734 183.792 187.198 183.657 186.755C183.525 186.312 183.333 185.975 183.082 185.743C182.833 185.511 182.534 185.395 182.184 185.395C181.658 185.395 181.247 185.654 180.951 186.173C180.655 186.689 180.507 187.419 180.507 188.364C180.507 188.993 180.574 189.528 180.706 189.969C180.839 190.409 181.029 190.744 181.278 190.974C181.529 191.203 181.831 191.318 182.184 191.318Z" fill="white"/>
<path d="M225.249 190.509V189.784L228.445 184.727H228.971V185.849H228.616L226.201 189.67V189.727H230.505V190.509H225.249ZM228.673 192V190.288V189.951V184.727H229.511V192H228.673ZM234.208 192.099C233.673 192.099 233.217 191.954 232.841 191.663C232.464 191.369 232.177 190.944 231.978 190.388C231.779 189.829 231.68 189.154 231.68 188.364C231.68 187.578 231.779 186.906 231.978 186.35C232.179 185.791 232.468 185.365 232.844 185.072C233.223 184.776 233.678 184.628 234.208 184.628C234.738 184.628 235.192 184.776 235.568 185.072C235.947 185.365 236.236 185.791 236.435 186.35C236.636 186.906 236.736 187.578 236.736 188.364C236.736 189.154 236.637 189.829 236.438 190.388C236.239 190.944 235.952 191.369 235.575 191.663C235.199 191.954 234.743 192.099 234.208 192.099ZM234.208 191.318C234.738 191.318 235.15 191.062 235.444 190.551C235.737 190.04 235.884 189.311 235.884 188.364C235.884 187.734 235.817 187.198 235.682 186.755C235.549 186.312 235.357 185.975 235.106 185.743C234.858 185.511 234.558 185.395 234.208 185.395C233.682 185.395 233.272 185.654 232.976 186.173C232.68 186.689 232.532 187.419 232.532 188.364C232.532 188.993 232.598 189.528 232.731 189.969C232.863 190.409 233.054 190.744 233.302 190.974C233.553 191.203 233.855 191.318 234.208 191.318Z" fill="white"/>
<path d="M279.859 192.099C279.442 192.099 279.067 192.017 278.733 191.851C278.399 191.685 278.132 191.458 277.93 191.169C277.729 190.88 277.619 190.551 277.6 190.182H278.452C278.485 190.511 278.635 190.783 278.9 190.999C279.167 191.212 279.487 191.318 279.859 191.318C280.157 191.318 280.422 191.248 280.654 191.109C280.888 190.969 281.072 190.777 281.204 190.533C281.339 190.287 281.407 190.009 281.407 189.699C281.407 189.382 281.337 189.099 281.197 188.85C281.06 188.599 280.871 188.402 280.629 188.257C280.388 188.113 280.112 188.039 279.802 188.037C279.579 188.035 279.351 188.069 279.116 188.14C278.882 188.209 278.689 188.297 278.538 188.406L277.714 188.307L278.154 184.727H281.932V185.509H278.893L278.637 187.653H278.68C278.829 187.535 279.016 187.437 279.241 187.359C279.466 187.281 279.7 187.241 279.944 187.241C280.389 187.241 280.785 187.348 281.133 187.561C281.484 187.772 281.758 188.061 281.957 188.428C282.159 188.795 282.259 189.214 282.259 189.685C282.259 190.149 282.155 190.563 281.947 190.928C281.741 191.29 281.457 191.576 281.094 191.787C280.732 191.995 280.32 192.099 279.859 192.099ZM286.042 192.099C285.507 192.099 285.051 191.954 284.675 191.663C284.298 191.369 284.011 190.944 283.812 190.388C283.613 189.829 283.514 189.154 283.514 188.364C283.514 187.578 283.613 186.906 283.812 186.35C284.013 185.791 284.302 185.365 284.678 185.072C285.057 184.776 285.512 184.628 286.042 184.628C286.572 184.628 287.026 184.776 287.402 185.072C287.781 185.365 288.07 185.791 288.269 186.35C288.47 186.906 288.57 187.578 288.57 188.364C288.57 189.154 288.471 189.829 288.272 190.388C288.073 190.944 287.786 191.369 287.409 191.663C287.033 191.954 286.577 192.099 286.042 192.099ZM286.042 191.318C286.572 191.318 286.984 191.062 287.278 190.551C287.571 190.04 287.718 189.311 287.718 188.364C287.718 187.734 287.651 187.198 287.516 186.755C287.383 186.312 287.191 185.975 286.94 185.743C286.692 185.511 286.392 185.395 286.042 185.395C285.516 185.395 285.106 185.654 284.81 186.173C284.514 186.689 284.366 187.419 284.366 188.364C284.366 188.993 284.432 189.528 284.565 189.969C284.697 190.409 284.888 190.744 285.136 190.974C285.387 191.203 285.689 191.318 286.042 191.318Z" fill="white"/>
<path d="M333.922 192.099C333.624 192.095 333.326 192.038 333.028 191.929C332.729 191.82 332.457 191.637 332.211 191.379C331.965 191.118 331.767 190.767 331.618 190.324C331.469 189.879 331.394 189.32 331.394 188.648C331.394 188.004 331.454 187.433 331.575 186.936C331.696 186.437 331.871 186.016 332.101 185.675C332.33 185.332 332.607 185.072 332.932 184.894C333.258 184.717 333.627 184.628 334.036 184.628C334.443 184.628 334.806 184.71 335.123 184.873C335.442 185.034 335.703 185.259 335.904 185.548C336.105 185.836 336.235 186.169 336.295 186.545H335.428C335.348 186.219 335.191 185.948 334.959 185.732C334.727 185.517 334.42 185.409 334.036 185.409C333.473 185.409 333.029 185.654 332.704 186.144C332.382 186.634 332.22 187.322 332.218 188.207H332.275C332.407 188.006 332.565 187.835 332.747 187.692C332.932 187.548 333.135 187.437 333.358 187.359C333.58 187.281 333.816 187.241 334.065 187.241C334.481 187.241 334.862 187.346 335.208 187.554C335.554 187.76 335.831 188.045 336.039 188.41C336.247 188.772 336.351 189.188 336.351 189.656C336.351 190.106 336.251 190.518 336.05 190.892C335.848 191.264 335.565 191.56 335.201 191.78C334.839 191.998 334.413 192.104 333.922 192.099ZM333.922 191.318C334.221 191.318 334.488 191.244 334.725 191.094C334.964 190.945 335.152 190.745 335.29 190.494C335.429 190.243 335.499 189.964 335.499 189.656C335.499 189.356 335.432 189.082 335.297 188.836C335.164 188.587 334.981 188.39 334.746 188.243C334.514 188.096 334.249 188.023 333.951 188.023C333.726 188.023 333.516 188.068 333.322 188.158C333.128 188.245 332.958 188.366 332.811 188.52C332.667 188.674 332.553 188.85 332.47 189.049C332.387 189.246 332.346 189.453 332.346 189.67C332.346 189.959 332.413 190.229 332.548 190.48C332.686 190.731 332.873 190.933 333.109 191.087C333.348 191.241 333.619 191.318 333.922 191.318ZM340.12 192.099C339.585 192.099 339.129 191.954 338.753 191.663C338.377 191.369 338.089 190.944 337.89 190.388C337.691 189.829 337.592 189.154 337.592 188.364C337.592 187.578 337.691 186.906 337.89 186.35C338.091 185.791 338.38 185.365 338.756 185.072C339.135 184.776 339.59 184.628 340.12 184.628C340.65 184.628 341.104 184.776 341.48 185.072C341.859 185.365 342.148 185.791 342.347 186.35C342.548 186.906 342.649 187.578 342.649 188.364C342.649 189.154 342.549 189.829 342.35 190.388C342.151 190.944 341.864 191.369 341.487 191.663C341.111 191.954 340.655 192.099 340.12 192.099ZM340.12 191.318C340.65 191.318 341.062 191.062 341.356 190.551C341.649 190.04 341.796 189.311 341.796 188.364C341.796 187.734 341.729 187.198 341.594 186.755C341.461 186.312 341.27 185.975 341.019 185.743C340.77 185.511 340.47 185.395 340.12 185.395C339.595 185.395 339.184 185.654 338.888 186.173C338.592 186.689 338.444 187.419 338.444 188.364C338.444 188.993 338.51 189.528 338.643 189.969C338.775 190.409 338.966 190.744 339.215 190.974C339.466 191.203 339.767 191.318 340.12 191.318Z" fill="white"/>
<circle cx="69.5" cy="65.5" r="3" fill="#63ABFD" stroke="#165BAA"/>
<circle cx="69.5" cy="65.5" r="3" fill="#63ABFD" stroke="#165BAA"/>
<circle cx="74.5" cy="123.5" r="3" fill="#63ABFD" stroke="#165BAA"/>
<circle cx="112.5" cy="72.5" r="3" fill="#63ABFD" stroke="#165BAA"/>
<circle cx="109.5" cy="111.5" r="3" fill="#63ABFD" stroke="#165BAA"/>
<circle cx="60.5" cy="135.5" r="3" fill="#63ABFD" stroke="#165BAA"/>
<circle cx="203.5" cy="14.5" r="3" fill="#63ABFD" stroke="#165BAA"/>
<circle cx="150.5" cy="54.5" r="3" fill="#63ABFD" stroke="#165BAA"/>
<circle cx="283.5" cy="58.5" r="3" fill="#63ABFD" stroke="#165BAA"/>
<circle cx="300.5" cy="43.5" r="3" fill="#63ABFD" stroke="#165BAA"/>
<circle cx="333.5" cy="28.5" r="3" fill="#63ABFD" stroke="#165BAA"/>
<circle cx="279.5" cy="100.5" r="3" fill="#63ABFD" stroke="#165BAA"/>
<circle cx="106.5" cy="149.5" r="3" fill="#63ABFD" stroke="#165BAA"/>
<circle cx="119.5" cy="35.5" r="3" fill="#63ABFD" stroke="#165BAA"/>
<circle cx="215.5" cy="83.5" r="3" fill="#63ABFD" stroke="#165BAA"/>
<circle cx="283.5" cy="39.5" r="3" fill="#63ABFD" stroke="#165BAA"/>
<circle cx="170.5" cy="76.5" r="3" fill="#63ABFD" stroke="#165BAA"/>
<circle cx="182.5" cy="75.5" r="3" fill="#63ABFD" stroke="#165BAA"/>
<circle cx="177.5" cy="91.5" r="3" fill="#63ABFD" stroke="#165BAA"/>
<circle cx="128.5" cy="21.5" r="3" transform="rotate(90 128.5 21.5)" fill="#E697FF" stroke="#A155B9"/>
<circle cx="70.5" cy="26.5" r="3" transform="rotate(90 70.5 26.5)" fill="#E697FF" stroke="#A155B9"/>
<circle cx="121.5" cy="64.5" r="3" transform="rotate(90 121.5 64.5)" fill="#E697FF" stroke="#A155B9"/>
<circle cx="82.5" cy="61.5" r="3" transform="rotate(90 82.5 61.5)" fill="#E697FF" stroke="#A155B9"/>
<circle cx="58.5" cy="12.5" r="3" transform="rotate(90 58.5 12.5)" fill="#E697FF" stroke="#A155B9"/>
<circle cx="179.5" cy="155.5" r="3" transform="rotate(90 179.5 155.5)" fill="#E697FF" stroke="#A155B9"/>
<circle cx="139.5" cy="102.5" r="3" transform="rotate(90 139.5 102.5)" fill="#E697FF" stroke="#A155B9"/>
<circle cx="44.5" cy="58.5" r="3" transform="rotate(90 44.5 58.5)" fill="#E697FF" stroke="#A155B9"/>
<circle cx="158.5" cy="71.5" r="3" transform="rotate(90 158.5 71.5)" fill="#E697FF" stroke="#A155B9"/>
<circle cx="117.5" cy="122.5" r="3" transform="rotate(90 117.5 122.5)" fill="#E697FF" stroke="#A155B9"/>
<circle cx="118.5" cy="134.5" r="3" transform="rotate(90 118.5 134.5)" fill="#E697FF" stroke="#A155B9"/>
<circle cx="102.5" cy="129.5" r="3" transform="rotate(90 102.5 129.5)" fill="#E697FF" stroke="#A155B9"/>
<circle cx="218.875" cy="75.3821" r="3" transform="rotate(13.9706 218.875 75.3821)" fill="#E697FF" stroke="#A155B9"/>
<circle cx="209.724" cy="132.873" r="3" transform="rotate(13.9706 209.724 132.873)" fill="#E697FF" stroke="#A155B9"/>
<circle cx="258.913" cy="92.5559" r="3" transform="rotate(13.9706 258.913 92.5559)" fill="#E697FF" stroke="#A155B9"/>
<circle cx="246.586" cy="129.678" r="3" transform="rotate(13.9706 246.586 129.678)" fill="#E697FF" stroke="#A155B9"/>
<circle cx="193.241" cy="141.138" r="3" transform="rotate(13.9706 193.241 141.138)" fill="#E697FF" stroke="#A155B9"/>
<circle cx="361.224" cy="58.2415" r="3" transform="rotate(13.9706 361.224 58.2415)" fill="#E697FF" stroke="#A155B9"/>
<circle cx="300.135" cy="84.2629" r="3" transform="rotate(13.9706 300.135 84.2629)" fill="#E697FF" stroke="#A155B9"/>
<circle cx="234.501" cy="165.83" r="3" transform="rotate(13.9706 234.501 165.83)" fill="#E697FF" stroke="#A155B9"/>
<circle cx="274.639" cy="58.3406" r="3" transform="rotate(13.9706 274.639 58.3406)" fill="#E697FF" stroke="#A155B9"/>
<circle cx="314.232" cy="110.441" r="3" transform="rotate(13.9706 314.232 110.441)" fill="#E697FF" stroke="#A155B9"/>
<circle cx="326.118" cy="112.367" r="3" transform="rotate(13.9706 326.118 112.367)" fill="#E697FF" stroke="#A155B9"/>
<circle cx="317.403" cy="126.687" r="3" transform="rotate(13.9706 317.403 126.687)" fill="#E697FF" stroke="#A155B9"/>
<circle r="3" transform="matrix(-4.37114e-08 -1 -1 4.37114e-08 128.5 157.571)" fill="#FFA5CB" stroke="#F765A3"/>
<circle r="3" transform="matrix(-4.37114e-08 -1 -1 4.37114e-08 70.5 152.571)" fill="#FFA5CB" stroke="#F765A3"/>
<circle r="3" transform="matrix(-4.37114e-08 -1 -1 4.37114e-08 121.5 114.571)" fill="#FFA5CB" stroke="#F765A3"/>
<circle r="3" transform="matrix(-4.37114e-08 -1 -1 4.37114e-08 82.5 117.571)" fill="#FFA5CB" stroke="#F765A3"/>
<circle r="3" transform="matrix(-4.37114e-08 -1 -1 4.37114e-08 58.5 166.571)" fill="#FFA5CB" stroke="#F765A3"/>
<circle r="3" transform="matrix(-4.37114e-08 -1 -1 4.37114e-08 179.5 23.5713)" fill="#FFA5CB" stroke="#F765A3"/>
<circle r="3" transform="matrix(-4.37114e-08 -1 -1 4.37114e-08 139.5 76.5713)" fill="#FFA5CB" stroke="#F765A3"/>
<circle r="3" transform="matrix(-4.37114e-08 -1 -1 4.37114e-08 44.5 120.571)" fill="#FFA5CB" stroke="#F765A3"/>
<circle r="3" transform="matrix(-4.37114e-08 -1 -1 4.37114e-08 158.5 107.571)" fill="#FFA5CB" stroke="#F765A3"/>
<circle r="3" transform="matrix(-4.37114e-08 -1 -1 4.37114e-08 117.5 56.5713)" fill="#FFA5CB" stroke="#F765A3"/>
<circle r="3" transform="matrix(-4.37114e-08 -1 -1 4.37114e-08 118.5 44.5713)" fill="#FFA5CB" stroke="#F765A3"/>
<circle r="3" transform="matrix(-4.37114e-08 -1 -1 4.37114e-08 102.5 49.5713)" fill="#FFA5CB" stroke="#F765A3"/>
<circle r="3" transform="matrix(0.97042 -0.241425 -0.241425 -0.97042 218.875 103.689)" fill="#FFA5CB" stroke="#F765A3"/>
<circle r="3" transform="matrix(0.97042 -0.241425 -0.241425 -0.97042 209.724 46.198)" fill="#FFA5CB" stroke="#F765A3"/>
<circle r="3" transform="matrix(0.97042 -0.241425 -0.241425 -0.97042 258.913 86.5154)" fill="#FFA5CB" stroke="#F765A3"/>
<circle r="3" transform="matrix(0.97042 -0.241425 -0.241425 -0.97042 246.586 49.3928)" fill="#FFA5CB" stroke="#F765A3"/>
<circle r="3" transform="matrix(0.97042 -0.241425 -0.241425 -0.97042 193.241 37.9329)" fill="#FFA5CB" stroke="#F765A3"/>
<circle r="3" transform="matrix(0.97042 -0.241425 -0.241425 -0.97042 361.224 120.83)" fill="#FFA5CB" stroke="#F765A3"/>
<circle r="3" transform="matrix(0.97042 -0.241425 -0.241425 -0.97042 300.135 94.8083)" fill="#FFA5CB" stroke="#F765A3"/>
<circle r="3" transform="matrix(0.97042 -0.241425 -0.241425 -0.97042 234.501 13.2415)" fill="#FFA5CB" stroke="#F765A3"/>
<circle r="3" transform="matrix(0.97042 -0.241425 -0.241425 -0.97042 274.639 120.731)" fill="#FFA5CB" stroke="#F765A3"/>
<circle r="3" transform="matrix(0.97042 -0.241425 -0.241425 -0.97042 314.232 68.6306)" fill="#FFA5CB" stroke="#F765A3"/>
<circle r="3" transform="matrix(0.97042 -0.241425 -0.241425 -0.97042 326.118 66.7043)" fill="#FFA5CB" stroke="#F765A3"/>
<circle r="3" transform="matrix(0.97042 -0.241425 -0.241425 -0.97042 317.403 52.3845)" fill="#FFA5CB" stroke="#F765A3"/>
<circle cx="333.5" cy="153.5" r="3" fill="#63ABFD" stroke="#165BAA"/>
<circle cx="348.5" cy="123.5" r="3" fill="#63ABFD" stroke="#165BAA"/>
<circle cx="241.5" cy="142.5" r="3" fill="#63ABFD" stroke="#165BAA"/>
<circle cx="316.5" cy="57.5" r="3" fill="#63ABFD" stroke="#165BAA"/>
</svg>
